<svg xmlns="http://www.w3.org/2000/svg" width="1200" height="253" viewBox="0 0 1200 253"><defs><linearGradient id="ink" x2="1" y2=".3"><stop stop-color="#97e5ed"/><stop offset=".5" stop-color="#c1b6fa"/><stop offset="1" stop-color="#efbbd8"/></linearGradient><radialGradient id="mist"><stop stop-color="#203c55"/><stop offset="1" stop-color="#0b1325"/></radialGradient></defs><style>text{font-family:Georgia,serif;fill:#e4ecf4}.small{font-family:Arial,sans-serif;letter-spacing:3px;fill:#a7c5d8}.ink{fill:url(#ink)}@media(prefers-reduced-motion:reduce){*{animation:none!important}}@keyframes flow{to{stroke-dashoffset:-120}}.flow{animation:flow 4s linear 1}</style><rect width="100%" height="100%" rx="24" fill="#0b1325"/><text x="48" y="54" class="small" font-size="13">THREE THREADS I KEEP FOLLOWING</text><circle cx="64" cy="109" r="15" fill="none" stroke="url(#ink)"/><text x="58" y="114" font-size="14" class="ink">1</text><text x="48" y="168" font-size="31" class="ink">Examine</text><text x="48" y="206" font-size="17">Data · uncertainty · evidence</text><circle cx="442" cy="109" r="15" fill="none" stroke="url(#ink)"/><text x="436" y="114" font-size="14" class="ink">2</text><text x="426" y="168" font-size="31" class="ink">Build</text><text x="426" y="206" font-size="17">Python · models · systems</text><circle cx="820" cy="109" r="15" fill="none" stroke="url(#ink)"/><text x="814" y="114" font-size="14" class="ink">3</text><text x="804" y="168" font-size="31" class="ink">Make it felt</text><text x="804" y="206" font-size="17">Graphics · interaction · play</text><path d="M80 110C190 30 280 195 420 110S650 30 797 110S1030 180 1134 110" fill="none" stroke="url(#ink)" stroke-width="1.5" opacity=".6"/><path class="flow" d="M80 110C190 30 280 195 420 110S650 30 797 110S1030 180 1134 110" fill="none" stroke="#edc8e6" stroke-dasharray="4 116" stroke-width="3"/></svg>